<svg version="1.2" baseProfile="tiny-ps" xmlns="http://www.w3.org/2000/svg" viewBox="0 0 96 96">
  <title>euoryan</title>
  <defs>
    <clipPath id="a"><path d="M18 14h60v47H18Zm0 0"/></clipPath>
    <clipPath id="b"><path d="m56.3 14.555.505-.055c1.082 3.988 2.457 8.04 3.78 11.953 1.282-.281 2.954-.453 4.31-.719 3.882-.773 8.418-1.726 12.125-3.097.378 3.543.668 6.613.914 10.164-3.008 1.07-6.403 1.875-9.532 2.515-1.226.25-2.504.399-3.73.649.855 1.457 1.644 3.058 2.535 4.566 2.719 4.621 5.469 8.461 9.117 12.375-.695 1.086-1.554 2.27-2.304 3.324-1 1.422-2.028 2.829-3.079 4.211-1.293.012-2.933-.129-4.238-.207-4.39-.277-8.77-.726-13.125-1.336-1.55-.21-3.656-.64-5.148-.773.187-1.004.308-2.238.43-3.262q.314-2.55.59-5.105c.51.07 1.066.12 1.581.18 1.25.105 2.563.273 3.828.39q3.186.276 6.38.492a80 80 0 0 1-6.551-10.746c-.434-.851-1.153-2.195-1.477-3.054-2.074.12-4.152.226-6.23.308a276 276 0 0 1-20.817-.07c-2.48-.102-5.18-.172-7.648-.387.066-3.371.047-7.176-.008-10.547 1.48.352 4.726.61 6.36.762 5.382.512 10.788.742 16.198.68 2.746-.024 5.598-.22 8.29-.22-.286-.585-.645-1.636-.883-2.284q-.7-1.871-1.375-3.754c-.688-1.914-1.516-3.899-2.16-5.781 1.195-.176 3-.286 4.277-.41Zm0 0"/></clipPath>
    <clipPath id="d"><path d="M19 46h50v35H19Zm0 0"/></clipPath>
    <clipPath id="e"><path d="M25.914 46.129c.773.14 1.652.434 2.484.59 2.786.523 5.723 1.015 8.543 1.222-.293.47-.617.922-.925 1.383-2.313 3.442-5.188 8.461-4.313 12.758.406 2.012 1.711 3.55 3.395 4.656 6.316 4.137 18.941 3.32 26.187 2.293 2.5-.355 4.961-.86 7.426-1.379-.3 3.137-.883 6.578-1.125 9.66-.176.079-.375.145-.555.211-1.05.301-2.09.668-3.152.965a54 54 0 0 1-6.262 1.32c-10.21 1.489-23.004.946-31.691-5.292-4.227-3.036-6.684-7.977-6.317-13.184.371-5.3 3.137-11.02 6.305-15.203m0 0"/></clipPath>
    <linearGradient id="c" x1="815.66" x2="216.694" y1="425.811" y2="377.376" gradientTransform="translate(-5.748 -5.748)scale(.10474)" gradientUnits="userSpaceOnUse"><stop offset="0" stop-color="#c90a0a"/><stop offset=".031" stop-color="#c90a0a"/><stop offset=".047" stop-color="#c90a0a"/><stop offset=".059" stop-color="#ca0a0a"/><stop offset=".063" stop-color="#ca0a0a"/><stop offset=".078" stop-color="#cb0a0a"/><stop offset=".094" stop-color="#cc0a0a"/><stop offset=".109" stop-color="#cd0a0a"/><stop offset=".125" stop-color="#ce0a0a"/><stop offset=".141" stop-color="#ce0a0a"/><stop offset=".156" stop-color="#cf0a0a"/><stop offset=".172" stop-color="#d00a0a"/><stop offset=".188" stop-color="#d10a0a"/><stop offset=".203" stop-color="#d20a0a"/><stop offset=".219" stop-color="#d30a0a"/><stop offset=".234" stop-color="#d40a0a"/><stop offset=".25" stop-color="#d50a0a"/><stop offset=".266" stop-color="#d60a0a"/><stop offset=".281" stop-color="#d60a0a"/><stop offset=".297" stop-color="#d70a0b"/><stop offset=".313" stop-color="#d80a0b"/><stop offset=".328" stop-color="#d90a0b"/><stop offset=".344" stop-color="#da0a0b"/><stop offset=".359" stop-color="#db0a0b"/><stop offset=".375" stop-color="#dc0a0b"/><stop offset=".391" stop-color="#dd0a0b"/><stop offset=".406" stop-color="#de0a0b"/><stop offset=".422" stop-color="#de0a0b"/><stop offset=".438" stop-color="#df0a0b"/><stop offset=".453" stop-color="#e00a0b"/><stop offset=".469" stop-color="#e10a0b"/><stop offset=".484" stop-color="#e20a0b"/><stop offset=".5" stop-color="#e30a0b"/><stop offset=".516" stop-color="#e40a0b"/><stop offset=".531" stop-color="#e50b0b"/><stop offset=".547" stop-color="#e60b0b"/><stop offset=".563" stop-color="#e70b0b"/><stop offset=".578" stop-color="#e70b0b"/><stop offset=".594" stop-color="#e80b0b"/><stop offset=".609" stop-color="#e90b0b"/><stop offset=".625" stop-color="#ea0b0b"/><stop offset=".641" stop-color="#eb0b0b"/><stop offset=".656" stop-color="#ec0b0b"/><stop offset=".672" stop-color="#ed0b0b"/><stop offset=".688" stop-color="#ee0b0b"/><stop offset=".703" stop-color="#ef0b0b"/><stop offset=".719" stop-color="#ef0b0b"/><stop offset=".734" stop-color="#f00b0b"/><stop offset=".75" stop-color="#f10b0b"/><stop offset=".766" stop-color="#f20b0c"/><stop offset=".781" stop-color="#f30b0c"/><stop offset=".797" stop-color="#f40b0c"/><stop offset=".813" stop-color="#f50b0c"/><stop offset=".828" stop-color="#f60b0c"/><stop offset=".844" stop-color="#f70b0c"/><stop offset=".859" stop-color="#f70b0c"/><stop offset=".875" stop-color="#f80b0c"/><stop offset=".891" stop-color="#f90b0c"/><stop offset=".906" stop-color="#fa0b0c"/><stop offset=".922" stop-color="#fb0b0c"/><stop offset=".938" stop-color="#fc0b0c"/><stop offset=".941" stop-color="#fd0b0c"/><stop offset=".953" stop-color="#fd0b0c"/><stop offset=".969" stop-color="#fe0b0c"/><stop offset="1" stop-color="#ff0b0c"/></linearGradient>
    <linearGradient id="f" x1="677.107" x2="228.292" y1="872.717" y2="508.001" gradientTransform="translate(-5.748 -5.748)scale(.10474)" gradientUnits="userSpaceOnUse"><stop offset="0" stop-color="#c90a0a"/><stop offset=".063" stop-color="#c90a0a"/><stop offset=".078" stop-color="#ca0a0a"/><stop offset=".094" stop-color="#cb0a0a"/><stop offset=".109" stop-color="#cc0a0a"/><stop offset=".125" stop-color="#cd0a0a"/><stop offset=".141" stop-color="#ce0a0a"/><stop offset=".156" stop-color="#cf0a0a"/><stop offset=".172" stop-color="#d00a0a"/><stop offset=".188" stop-color="#d10a0a"/><stop offset=".203" stop-color="#d20a0a"/><stop offset=".219" stop-color="#d30a0a"/><stop offset=".234" stop-color="#d40a0a"/><stop offset=".25" stop-color="#d50a0a"/><stop offset=".266" stop-color="#d60a0a"/><stop offset=".281" stop-color="#d70a0a"/><stop offset=".297" stop-color="#d80a0b"/><stop offset=".313" stop-color="#d90a0b"/><stop offset=".328" stop-color="#da0a0b"/><stop offset=".344" stop-color="#db0a0b"/><stop offset=".359" stop-color="#db0a0b"/><stop offset=".366" stop-color="#dc0a0b"/><stop offset=".375" stop-color="#dd0a0b"/><stop offset=".391" stop-color="#dd0a0b"/><stop offset=".406" stop-color="#de0a0b"/><stop offset=".422" stop-color="#df0a0b"/><stop offset=".438" stop-color="#e00a0b"/><stop offset=".453" stop-color="#e10a0b"/><stop offset=".469" stop-color="#e20a0b"/><stop offset=".484" stop-color="#e30a0b"/><stop offset=".5" stop-color="#e40a0b"/><stop offset=".516" stop-color="#e50b0b"/><stop offset=".531" stop-color="#e60b0b"/><stop offset=".547" stop-color="#e70b0b"/><stop offset=".563" stop-color="#e80b0b"/><stop offset=".578" stop-color="#e90b0b"/><stop offset=".594" stop-color="#ea0b0b"/><stop offset=".609" stop-color="#eb0b0b"/><stop offset=".625" stop-color="#ec0b0b"/><stop offset=".634" stop-color="#ed0b0b"/><stop offset=".641" stop-color="#ee0b0b"/><stop offset=".656" stop-color="#ee0b0b"/><stop offset=".672" stop-color="#ef0b0b"/><stop offset=".688" stop-color="#f00b0b"/><stop offset=".703" stop-color="#f10b0b"/><stop offset=".719" stop-color="#f20b0c"/><stop offset=".734" stop-color="#f30b0c"/><stop offset=".75" stop-color="#f40b0c"/><stop offset=".766" stop-color="#f50b0c"/><stop offset=".781" stop-color="#f60b0c"/><stop offset=".797" stop-color="#f70b0c"/><stop offset=".813" stop-color="#f80b0c"/><stop offset=".828" stop-color="#f90b0c"/><stop offset=".844" stop-color="#fa0b0c"/><stop offset=".859" stop-color="#fb0b0c"/><stop offset=".875" stop-color="#fc0b0c"/><stop offset=".891" stop-color="#fd0b0c"/><stop offset=".906" stop-color="#fe0b0c"/><stop offset=".938" stop-color="#ff0b0c"/><stop offset="1" stop-color="#ff0b0c"/></linearGradient>
  </defs>
  <path fill="#fff" d="M-9.6-9.6h115.2v115.2H-9.6z"/>
  <path fill="#221f1f" d="M-9.6-9.6h115.2v115.2H-9.6z"/>
  <g clip-path="url(#a)">
    <g clip-path="url(#b)">
      <path fill="url(#c)" d="M18.508 14.5v45.953h59.426V14.5Zm0 0"/>
    </g>
  </g>
  <g clip-path="url(#d)">
    <g clip-path="url(#e)">
      <path fill="url(#f)" d="M19.242 46.129v35.168h49.469V46.129Zm0 0"/>
    </g>
  </g>
</svg>
