<?xml version="1.0"?><svg version="1.2" baseProfile="tiny-ps" viewBox="0 0 300 300" xmlns="http://www.w3.org/2000/svg" xmlns:xlink="http://www.w3.org/1999/xlink"><title>euoryan</title><g><g fill="#f40000" transform="matrix(.1 0 0 -.1 0 300)"><path d="M1598 2816c-97-12-179-23-181-26-3-3 28-103 69-224 41-120 74-224 74-232v-13l-142-3c-277-6-572 7-1003 45l-20 2 4-190c2-104 4-191 5-192 0-1 66-7 146-14l145-13 410-1h410l92 8 92 8 79-163c43-90 106-212 140-271 34-60 62-112 62-116v-7l-32 3c-18 1-113 10-212 18l-179 16-7-8c-10-9-35-301-27-309 2-3 76-12 163-20 88-8 251-26 364-41 113-14 222-26 243-27l39-1 90 132 90 132-63 73c-103 119-249 356-337 547l-34 74 14 8c7 5 22 9 33 9 53 0 477 89 491 102 4 5-44 369-49 375-2 1-59-13-128-31-127-36-343-80-442-92l-55-7-25 79c-14 44-42 150-63 236l-39 158-20-1c-11-1-100-11-197-23zM580 1326c-22-48-53-131-70-183l-30-96-11-86-12-86 7-73 6-73 25-75c29-87 60-139 124-207 128-137 335-225 618-262l114-15h177c97 0 231 5 297 10 134 11 406 47 445 59l25 8 11 184c6 101 9 186 8 188-2 2-48-4-103-13s-169-24-253-33l-153-16h-250l-250-1-98 21-98 22-62 29c-77 36-120 72-151 126l-24 41-11 58-11 58 11 76c12 88 33 146 94 260l44 81-147 36c-81 19-166 38-189 42l-43 7-40-87z"/></g><g fill="#d80000" transform="matrix(.1 0 0 -.1 0 300)"><path d="M1598 2816c-97-12-179-23-181-26-3-3 28-103 69-224 41-120 74-225 74-232v-14h-269l5-14c5-12-27-270-42-335l-5-23 163 6c90 3 191 9 225 12l61 6 79-163c44-90 107-213 141-272 34-60 62-112 62-116v-7l-32 3c-18 1-113 10-212 18l-179 16-7-8c-10-9-35-301-27-309 2-3 76-12 163-20 88-8 251-26 364-41 113-14 222-26 243-27l39-1 90 132 90 132-63 73c-103 119-249 356-337 547l-34 74 14 8c7 5 22 9 33 9 53 0 477 89 491 102 4 5-44 369-49 375-2 1-59-13-128-31-127-36-343-80-442-92l-55-7-25 79c-14 44-42 150-63 236l-39 158-20-1c-11-1-100-11-197-23zm-445-503c15-2 39-2 55 0l27 4h-110l28-4zM2195 604c-38-7-144-20-235-30l-165-17-245-1h-245l-95 21c-52 12-102 24-110 27l-15 6-1-24c-4-58-46-333-54-347l-9-17 82-15c45-9 120-21 167-27l84-10h176c96 0 229 5 295 10 139 12 420 49 451 61l21 8 7 163c4 90 10 173 13 186l5 22-28-1c-16-1-60-8-99-15z"/></g><g fill="#c20000" transform="matrix(.1 0 0 -.1 0 300)"><path d="m1891 2504 1-19 5 13c3 7 2 16-1 19-3 4-6-2-5-13zm564-34c-106-31-363-85-457-96l-56-7-13 42c-7 22-15 41-18 41-7 0-62-395-82-582l-12-107-19 22-19 22 42-85c23-46 68-131 100-188 33-57 59-107 59-111v-7l-97 8-97 8-6-10c-4-6-15-72-25-148-10-75-22-142-26-148l-9-11 107-12c60-6 195-23 302-37l194-26 12 14c7 7 49 68 95 135l82 122-61 70c-107 125-256 368-342 557l-31 67 14 8c7 5 22 9 33 9 53 0 477 89 491 102 2 3-8 87-21 187-14 101-25 185-25 187 0 7-10 4-115-26zM2190 604c-99-18-356-44-439-44-36 0-71-4-77-8-15-10-23-55-34-192-5-63-12-129-16-147l-6-32-37-4-36-4 80-1c139-3 585 44 651 69l21 8 7 163c4 90 10 173 13 186l5 22-28-1c-16-1-63-8-104-15z"/></g></g></svg>